<svg 
 xmlns="http://www.w3.org/2000/svg"
 xmlns:xlink="http://www.w3.org/1999/xlink"
 width="79.5px" height="79.5px">
 <circle cx="50%" cy="50%" r="30"  fill="rgb(245, 104, 86)" />
<path fill-rule="evenodd"  stroke="rgb(255, 255, 255)" stroke-width="1px" stroke-linecap="butt" stroke-linejoin="miter" fill="rgb(255, 255, 255)"
  d="M39.500,4.499 C20.172,4.499 4.500,20.167 4.500,39.498 C4.500,58.828 20.172,74.498 39.500,74.498 C58.830,74.498 74.500,58.828 74.500,39.498 C74.500,20.167 58.830,4.499 39.500,4.499 ZM47.836,27.122 C48.506,27.540 48.711,28.414 48.297,29.080 C47.883,29.749 45.617,30.709 45.617,30.709 C45.617,30.709 45.465,28.250 45.883,27.582 C46.293,26.918 47.174,26.712 47.836,27.122 ZM43.066,24.229 C43.551,23.422 44.601,23.160 45.408,23.647 C46.219,24.130 46.480,25.181 45.996,25.989 C45.512,26.796 42.801,27.994 42.801,27.994 C42.801,27.994 42.578,25.041 43.066,24.229 ZM38.946,22.045 C39.221,21.022 40.276,20.416 41.297,20.689 C42.320,20.960 42.924,22.011 42.650,23.040 C42.379,24.063 39.824,26.185 39.824,26.185 C39.824,26.185 38.670,23.066 38.946,22.045 ZM32.694,20.572 C33.076,19.130 34.554,18.280 35.992,18.667 C37.429,19.047 38.284,20.526 37.898,21.966 C37.515,23.402 33.922,26.390 33.922,26.390 C33.922,26.390 32.305,22.007 32.694,20.572 ZM41.691,50.112 C39.606,61.713 35.024,61.205 33.190,59.993 C31.670,58.991 30.263,55.697 35.032,49.514 C37.154,46.770 34.181,43.463 31.334,39.810 C28.378,36.019 29.070,30.326 34.216,27.798 C37.720,26.078 43.297,29.058 45.480,33.929 C47.664,38.804 42.734,44.326 41.691,50.112 ZM49.097,32.832 C48.674,33.268 46.785,33.617 46.785,33.617 C46.785,33.617 47.086,31.721 47.513,31.280 C47.941,30.848 48.640,30.834 49.082,31.262 C49.523,31.690 49.527,32.393 49.097,32.832 Z"/>

</svg>

