<svg 
 xmlns="http://www.w3.org/2000/svg"
 xmlns:xlink="http://www.w3.org/1999/xlink"
 width="27.5px" height="47.5px">
<path fill-rule="evenodd"  stroke="rgb(255, 255, 255)" stroke-width="1px" stroke-linecap="butt" stroke-linejoin="miter" fill="rgb(245, 104, 86)"
 d="M26.210,16.462 C26.090,16.200 25.830,16.031 25.544,16.031 L16.838,16.031 L25.431,2.243 C25.574,2.013 25.583,1.722 25.454,1.484 C25.324,1.245 25.077,1.097 24.810,1.097 L13.054,1.097 C12.776,1.097 12.521,1.258 12.396,1.510 L1.375,23.910 C1.262,24.141 1.274,24.415 1.408,24.636 C1.542,24.856 1.778,24.991 2.033,24.991 L9.588,24.991 L1.355,44.861 C1.215,45.201 1.340,45.595 1.649,45.788 C1.768,45.863 1.901,45.897 2.032,45.897 C2.243,45.897 2.451,45.805 2.595,45.633 L26.107,17.258 C26.291,17.037 26.331,16.726 26.210,16.462 Z"/>
</svg>