<svg 
 xmlns="http://www.w3.org/2000/svg"
 xmlns:xlink="http://www.w3.org/1999/xlink"
 width="79.5px" height="79.5px">
 <circle cx="50%" cy="50%" r="20"  fill="rgb(245, 104, 86)" />
<path fill-rule="evenodd"  stroke="rgb(255, 255, 255)" stroke-width="1px" stroke-linecap="butt" stroke-linejoin="miter" fill="rgb(255, 255, 255)"
 d="M39.499,74.498 C20.170,74.498 4.500,58.827 4.500,39.498 C4.500,20.168 20.170,4.498 39.499,4.498 C58.829,4.498 74.500,20.168 74.500,39.498 C74.500,58.827 58.829,74.498 39.499,74.498 ZM54.366,53.379 L54.366,40.098 C54.366,38.117 52.964,36.464 51.099,36.073 L51.099,30.077 C51.099,23.681 45.896,18.477 39.500,18.477 C33.104,18.477 27.901,23.682 27.901,30.077 L27.901,36.073 C26.035,36.462 24.634,38.117 24.634,40.098 L24.634,53.379 C24.634,55.652 26.475,57.493 28.746,57.493 L50.254,57.493 C52.525,57.493 54.367,55.652 54.367,53.379 L54.366,53.379 ZM33.953,30.077 C33.953,27.018 36.442,24.529 39.501,24.529 C42.560,24.529 45.048,27.018 45.048,30.077 L45.048,35.984 L33.953,35.984 L33.953,30.077 ZM39.500,42.178 C41.510,42.178 43.139,43.807 43.139,45.818 C43.139,47.165 42.405,48.340 41.315,48.969 L41.315,53.015 L37.684,53.015 L37.684,48.969 C36.595,48.340 35.860,47.165 35.860,45.818 C35.860,43.807 37.490,42.178 39.500,42.178 Z"/>
</svg>