<svg xmlns="http://www.w3.org/2000/svg" width="79.5" height="79.5"><circle cx="50%" cy="50%" r="30" fill="#F56856"/><path fill-rule="evenodd" stroke="#FFF" fill="#FFF" d="M39.5 4.499c-19.328 0-35 15.668-35 34.999 0 19.33 15.672 35 35 35 19.33 0 35-15.67 35-35 0-19.331-15.67-34.999-35-34.999zm8.336 22.623c.67.418.875 1.292.461 1.958-.414.669-2.68 1.629-2.68 1.629s-.152-2.459.266-3.127a1.423 1.423 0 011.953-.46zm-4.77-2.893a1.706 1.706 0 012.342-.582 1.706 1.706 0 01.588 2.342c-.484.807-3.195 2.005-3.195 2.005s-.223-2.953.265-3.765zm-4.12-2.184a1.922 1.922 0 012.351-1.356 1.914 1.914 0 011.353 2.351c-.271 1.023-2.826 3.145-2.826 3.145s-1.154-3.119-.878-4.14zm-6.252-1.473a2.685 2.685 0 013.298-1.905 2.69 2.69 0 011.906 3.299c-.383 1.436-3.976 4.424-3.976 4.424s-1.617-4.383-1.228-5.818zm8.997 29.54c-2.085 11.601-6.667 11.093-8.501 9.881-1.52-1.002-2.927-4.296 1.842-10.479 2.122-2.744-.851-6.051-3.698-9.704-2.956-3.791-2.264-9.484 2.882-12.012 3.504-1.72 9.081 1.26 11.264 6.131 2.184 4.875-2.746 10.397-3.789 16.183zm7.406-17.28c-.423.436-2.312.785-2.312.785s.301-1.896.728-2.337a1.115 1.115 0 011.569-.018c.441.428.445 1.131.015 1.57z"/></svg>