<svg xmlns="http://www.w3.org/2000/svg" width="79.5" height="79.5"><circle cx="50%" cy="50%" r="20" fill="#F56856"/><path fill-rule="evenodd" stroke="#FFF" fill="#FFF" d="M39.499 74.498c-19.329 0-34.999-15.671-34.999-35 0-19.33 15.67-35 34.999-35 19.33 0 35.001 15.67 35.001 35 0 19.329-15.671 35-35.001 35zm14.867-21.119V40.098a4.115 4.115 0 00-3.267-4.025v-5.996c0-6.396-5.203-11.6-11.599-11.6s-11.599 5.205-11.599 11.6v5.996a4.113 4.113 0 00-3.267 4.025v13.281a4.112 4.112 0 004.112 4.114h21.508a4.113 4.113 0 004.113-4.114h-.001zM33.953 30.077a5.555 5.555 0 015.548-5.548 5.554 5.554 0 015.547 5.548v5.907H33.953v-5.907zM39.5 42.178a3.639 3.639 0 011.815 6.791v4.046h-3.631v-4.046a3.637 3.637 0 011.816-6.791z"/></svg>